<mxfile host="app.diagrams.net" modified="2023-02-09T03:13:27.008Z" agent="5.0 (X11)" etag="kThyrYIbBOfYiyYIjOSd" version="20.8.18" type="github">
  <diagram name="Page-1" id="Oh8PizWOM3rQ48YbtjGV">
    <mxGraphModel dx="957" dy="811" grid="1" gridSize="10" guides="1" tooltips="1" connect="1" arrows="1" fold="1" page="1" pageScale="1" pageWidth="850" pageHeight="1100" math="0" shadow="0">
      <root>
        <mxCell id="0" />
        <mxCell id="1" parent="0" />
        <mxCell id="-fII02zxRU6tutqx3c7t-1" value="" style="rounded=0;whiteSpace=wrap;html=1;fontFamily=Helvetica;fontSize=19;" vertex="1" parent="1">
          <mxGeometry x="90" y="190" width="660" height="600" as="geometry" />
        </mxCell>
        <mxCell id="-fII02zxRU6tutqx3c7t-2" value="Usecase - Manage Role" style="text;html=1;strokeColor=none;fillColor=none;align=center;verticalAlign=middle;whiteSpace=wrap;rounded=0;fontSize=19;fontFamily=Helvetica;" vertex="1" parent="1">
          <mxGeometry x="310" y="200" width="270" height="30" as="geometry" />
        </mxCell>
        <mxCell id="-fII02zxRU6tutqx3c7t-3" value="&lt;div&gt;Manage &lt;br&gt;&lt;/div&gt;&lt;div&gt;Role&lt;/div&gt;" style="ellipse;whiteSpace=wrap;html=1;fontFamily=Helvetica;fontSize=19;" vertex="1" parent="1">
          <mxGeometry x="120" y="440" width="120" height="80" as="geometry" />
        </mxCell>
        <mxCell id="-fII02zxRU6tutqx3c7t-4" value="extends" style="edgeStyle=none;rounded=0;orthogonalLoop=1;jettySize=auto;html=1;fontFamily=Helvetica;fontSize=12;dashed=1;dashPattern=8 8;" edge="1" parent="1" source="-fII02zxRU6tutqx3c7t-5" target="-fII02zxRU6tutqx3c7t-3">
          <mxGeometry relative="1" as="geometry" />
        </mxCell>
        <mxCell id="-fII02zxRU6tutqx3c7t-5" value="Display All Permission in Role" style="ellipse;whiteSpace=wrap;html=1;fontFamily=Helvetica;fontSize=19;" vertex="1" parent="1">
          <mxGeometry x="350" y="550" width="120" height="80" as="geometry" />
        </mxCell>
        <mxCell id="-fII02zxRU6tutqx3c7t-8" value="extends" style="rounded=0;orthogonalLoop=1;jettySize=auto;html=1;dashed=1;" edge="1" parent="1" source="-fII02zxRU6tutqx3c7t-9" target="-fII02zxRU6tutqx3c7t-3">
          <mxGeometry relative="1" as="geometry" />
        </mxCell>
        <mxCell id="-fII02zxRU6tutqx3c7t-9" value="&lt;div&gt;List Role&lt;br&gt;&lt;/div&gt;" style="ellipse;whiteSpace=wrap;html=1;fontFamily=Helvetica;fontSize=19;" vertex="1" parent="1">
          <mxGeometry x="350" y="300" width="120" height="80" as="geometry" />
        </mxCell>
        <mxCell id="-fII02zxRU6tutqx3c7t-10" value="extends" style="edgeStyle=none;rounded=0;orthogonalLoop=1;jettySize=auto;html=1;dashed=1;" edge="1" parent="1" source="-fII02zxRU6tutqx3c7t-11" target="-fII02zxRU6tutqx3c7t-5">
          <mxGeometry relative="1" as="geometry" />
        </mxCell>
        <mxCell id="-fII02zxRU6tutqx3c7t-11" value="Change permission of Role" style="ellipse;whiteSpace=wrap;html=1;fontFamily=Helvetica;fontSize=19;" vertex="1" parent="1">
          <mxGeometry x="600" y="550" width="120" height="80" as="geometry" />
        </mxCell>
      </root>
    </mxGraphModel>
  </diagram>
</mxfile>
